HIERARCHY
ROOT Hips
{
   OFFSET 0.00000 0.00000 0.00000
   CHANNELS 6 Xposition Yposition Zposition Zrotation Xrotation Yrotation
   JOINT Spine
   {
      OFFSET 0.000000 11.890501 0.000000
      CHANNELS 3 Zrotation Xrotation Yrotation
      JOINT Spine1
      {
         OFFSET -0.000000 25.657401 0.127660
         CHANNELS 3 Zrotation Xrotation Yrotation
         JOINT HEad
         {
            OFFSET 0.000000 8.734161 0.011340
            CHANNELS 3 Zrotation Xrotation Yrotation
            End Site
            {
               OFFSET -0.290000 12.774200 2.513950
            }
         }
         JOINT LeftShoulder1
         {
            OFFSET 8.990000 -0.362250 -0.220000
            CHANNELS 3 Zrotation Xrotation Yrotation
            JOINT LeftArm
            {
               OFFSET 10.282700 -0.003380 0.322120
               CHANNELS 3 Zrotation Xrotation Yrotation
               JOINT LeftForeArm
               {
                  OFFSET 32.766900 0.099140 -1.424340
                  CHANNELS 3 Zrotation Xrotation Yrotation
                  JOINT LeftHand
                  {
                     OFFSET 27.564301 0.085360 1.022160
                     CHANNELS 3 Zrotation Xrotation Yrotation
                     End Site
                     {
                        OFFSET 16.744301 -0.600000 1.502910
                     }
                  }
               }
            }
         }
         JOINT RightShoulder
         {
            OFFSET -8.990000 -0.362250 -0.220000
            CHANNELS 3 Zrotation Xrotation Yrotation
            JOINT RightArm
            {
               OFFSET -10.282700 -0.003380 0.322120
               CHANNELS 3 Zrotation Xrotation Yrotation
               JOINT RightForeArm
               {
                  OFFSET -32.897098 0.099140 -1.424340
                  CHANNELS 3 Zrotation Xrotation Yrotation
                  JOINT RightHand
                  {
                     OFFSET -27.492101 0.085360 1.022160
                     CHANNELS 3 Zrotation Xrotation Yrotation
                     End Site
                     {
                        OFFSET -16.631201 -0.600000 1.502910
                     }
                  }
               }
            }
         }
      }
   }
   JOINT LeftUpLeg
   {
      OFFSET 8.945800 -8.667070 0.101650
      CHANNELS 3 Zrotation Xrotation Yrotation
      JOINT LeftLeg
      {
         OFFSET 0.000000 -44.422697 1.372700
         CHANNELS 3 Zrotation Xrotation Yrotation
         JOINT LeftFoot
         {
            OFFSET -0.253550 -42.092399 -1.460590
            CHANNELS 3 Zrotation Xrotation Yrotation
            JOINT LeftToes
            {
               OFFSET -0.040000 -4.415090 8.499099
               CHANNELS 3 Zrotation Xrotation Yrotation
               End Site
               {
                  OFFSET 0.080000 -0.047450 9.779790
               }
            }
         }
      }
   }
   JOINT RightUpLeg
   {
      OFFSET -8.945800 -8.667070 0.101650
      CHANNELS 3 Zrotation Xrotation Yrotation
      JOINT RightLeg
      {
         OFFSET 0.000000 -44.422697 1.372700
         CHANNELS 3 Zrotation Xrotation Yrotation
         JOINT RightFoot
         {
            OFFSET 0.253550 -42.092399 -1.460590
            CHANNELS 3 Zrotation Xrotation Yrotation
            JOINT RightToes
            {
               OFFSET 0.040000 -4.415090 8.499099
               CHANNELS 3 Zrotation Xrotation Yrotation
               End Site
               {
                  OFFSET -0.080000 -0.137450 9.779790
               }
            }
         }
      }
   }
}
MOTION
Frames: 9
Frame Time: 0.016670
-55.483770 91.914939 -112.327879 0.651614 -19.836618 4.405057 -16.173171 32.306522 120.271981 30.132886 -22.223216 -133.776112 -32.011649 27.518764 -4.472034 38.784946 105.325793 -28.801907 124.813757 -72.139297 77.626603 423.113553 -79.074459 15.317073 -53.356809 -29.800675 -56.557760 -52.041195 65.240348 114.797011 45.049510 76.059532 238.801090 75.063574 193.597873 85.467912 -73.504037 -68.173450 -28.622531 14.153276 -3.759381 -0.840384 -15.811642 11.488722 63.355325 -25.877717 43.311408 -8.534280 0.870440 -4.030542 -45.720836 -10.249085 2.604937 0.667028 17.661259 24.614583 -0.586509 -41.461700 2.277488 22.736475 34.708218 -39.941645 -52.022843
-55.565247 91.859520 -112.331208 0.793328 -18.621905 2.483993 -13.102049 33.049930 119.766807 25.664328 -18.861684 -134.427712 -31.743892 26.273526 -2.708641 37.423740 108.096056 -30.209664 133.178785 -70.056144 82.577684 427.427036 -84.774170 18.619046 -53.292947 -28.400092 -54.603046 -59.918449 71.208506 126.266948 38.657330 76.859675 239.085171 78.629875 189.841078 88.643103 -80.998039 -73.514419 -32.906021 14.444093 -4.122088 -2.407745 -16.795053 9.571429 62.794587 -25.840714 41.969122 -6.645652 -1.030443 -4.926257 -43.928037 -10.944689 0.277826 -0.411427 17.541275 26.653918 1.450963 -41.541999 1.351519 22.416578 34.836922 -41.159789 -51.920533
-55.559224 91.791085 -112.286070 0.054935 -17.815317 1.594392 -11.897546 33.608123 119.538761 23.033797 -16.110321 -134.434829 -31.255888 25.224650 -1.226061 37.049391 110.662445 -31.297170 139.647753 -68.267529 85.509454 430.722466 -89.352323 21.880849 -53.928175 -27.052861 -52.175532 -69.679473 78.660256 137.981146 33.248125 81.263432 239.915558 79.625218 188.721774 91.303920 -87.779296 -78.339995 -38.671595 15.235987 -4.557719 -4.258269 -17.214351 8.146838 62.488977 -25.898100 40.741320 -4.938096 -2.735373 -5.836174 -42.579440 -10.458158 -1.125448 -1.364064 17.435374 27.645618 3.424648 -41.510321 0.629609 22.390781 34.617881 -42.157116 -51.738567
-55.535168 91.716593 -112.192982 -0.598170 -17.370266 1.004421 -10.646017 33.549770 119.568581 21.845146 -14.067909 -133.647008 -30.580014 24.021232 -0.006534 37.622936 111.890786 -32.546671 144.836046 -67.081672 87.037510 433.280536 -93.395283 25.546849 -54.329551 -25.623035 -49.771554 -80.256061 88.094182 150.145549 28.299135 88.891135 240.888341 79.302403 188.096224 95.742675 -93.874106 -82.296417 -44.960875 16.021366 -4.848686 -6.255959 -17.751102 7.039086 62.402323 -25.984263 39.737545 -3.395253 -4.272870 -6.721958 -41.630525 -10.073405 -1.843096 -2.295958 17.165083 28.200239 5.045546 -41.374168 0.324011 22.587897 34.346750 -42.870198 -51.571248
-55.495042 91.659754 -112.088555 -1.090655 -17.004079 0.420310 -9.592459 33.604370 119.305824 22.054184 -13.153521 -132.555161 -29.827651 22.622109 1.003056 39.666740 111.188410 -34.520333 148.684680 -66.938046 89.087257 435.829153 -96.958770 28.828750 -54.719357 -24.700332 -47.608727 -90.879676 99.698892 162.704395 24.078884 99.365899 242.472535 77.635830 187.874134 101.671922 -100.078930 -86.037202 -50.826877 16.832117 -5.159370 -8.393397 -18.239011 6.076932 62.411257 -25.974033 38.983120 -1.992211 -5.534799 -7.345104 -40.931804 -9.757708 -2.367597 -3.338550 17.091524 28.578857 6.284824 -41.085548 0.091171 22.720701 34.109992 -43.385075 -51.417732
-55.461258 91.624592 -111.974447 -1.241290 -16.703366 0.065364 -8.487256 33.837901 118.623761 24.143834 -13.671115 -131.223643 -29.150749 20.939869 1.864164 43.224268 108.323938 -37.153610 151.479198 -67.817966 92.428203 438.532951 -100.076622 31.783025 -54.647971 -24.119162 -45.913966 -100.822833 113.766684 174.947086 21.112688 111.441346 245.070958 74.702168 188.710313 108.517977 -105.676673 -89.222256 -56.886931 17.593637 -5.377382 -10.489437 -19.080198 4.993011 62.497488 -25.909052 38.524552 -0.724675 -6.588083 -7.728155 -40.375294 -9.827122 -2.853702 -4.301012 17.145324 29.113132 7.223360 -40.720850 -0.098499 22.810101 33.939603 -43.726564 -51.161033
-55.441937 91.619872 -111.824444 -1.973156 -16.831813 -0.798879 -9.025791 34.816558 117.307051 27.329067 -14.847863 -130.400810 -28.742734 19.088849 2.650149 47.596774 105.362662 -40.403281 152.666093 -69.138556 98.156662 441.349093 -102.047814 34.278093 -54.496553 -23.897985 -44.716671 -108.988632 128.313300 186.705557 20.463698 124.164014 249.134265 70.624409 189.990031 115.529125 -110.792929 -92.280985 -63.214207 18.277766 -6.459718 -13.071229 -19.058793 6.067474 63.001972 -25.720761 38.054505 0.771647 -7.686117 -8.199538 -39.903157 -9.640461 -3.316732 -5.230038 17.474651 29.435192 8.053810 -40.292389 -0.356127 22.988844 33.839298 -43.857454 -50.699917
-55.368046 91.478404 -111.778229 -2.120843 -17.104351 -1.033764 -8.427151 33.945122 116.856040 31.640947 -17.174738 -128.188963 -28.601197 16.531896 3.371159 52.770284 101.289089 -45.117436 154.510340 -69.697935 102.351901 444.589198 -103.432621 37.827770 -54.358183 -23.602219 -43.820489 -114.391175 142.993166 197.063566 22.289851 136.297805 254.538037 66.302648 192.123727 121.875122 -116.936609 -95.365690 -66.753652 18.736322 -5.988466 -15.213987 -19.446411 5.107308 63.240059 -25.732051 37.546018 1.687817 -8.537947 -8.370892 -39.606945 -9.445674 -2.403494 -5.881627 17.231649 29.458889 8.643248 -39.937028 -0.392912 23.251139 33.542041 -44.318393 -50.183319
-55.296902 91.378506 -111.667355 -2.734311 -17.614858 -1.234643 -9.028822 33.709668 116.476882 35.506438 -19.622877 -125.730150 -28.777073 13.185118 4.056783 58.546421 96.929175 -50.411881 156.371744 -69.384374 106.737490 447.939269 -103.646331 41.845291 -54.518990 -23.032721 -43.421374 -116.771373 157.776441 205.089708 25.755370 147.488687 261.130891 62.251615 195.253907 127.006193 -122.039689 -98.019430 -70.818639 19.588064 -5.759802 -17.342006 -19.955453 4.776011 63.634974 -25.794322 37.032917 2.592303 -9.364161 -8.487610 -39.208636 -9.137924 -1.853595 -6.247664 16.960108 29.412468 9.231568 -39.547314 -0.557459 23.632782 33.275152 -44.570249 -49.497869
